Love for All and Sharing is the first step to solving all the problems of humanity.

Websites I want to share.

 
http://www.shareintl.org/

 
http://www.lightmiddleway.com


Thank you very much

No credit for me...credit to EVERYONE for sharing

 
http://thepiratebay.org/user/raymondhome/

STORY
The most unexpected comedy ever conceived.

An unmarried 40-year-old woman turns to a turkey baster in order to become pregnant.

Runtime.......:1h 36mn
Language..........:ENGLISH

Video
ID                               : 0
Format                           : MPEG-4 Visual
Format profile                   : Advanced Simple@L5
Format settings, BVOP            : Yes
Format settings, QPel            : No
Format settings, GMC             : No warppoints
Format settings, Matrix          : Default (MPEG)
Muxing mode                      : Packed bitstream
Codec ID                         : XVID
Codec ID/Hint                    : XviD
Duration                         : 1h 36mn
Bit rate                         : 882 Kbps
Width                            : 688 pixels
Height                           : 256 pixels
Display aspect ratio             : 2.688
Frame rate                       : 25.000 fps
Resolution                       : 24 bits
Colorimetry                      : 4:2:0
Scan type                        : Progressive
Bits/(Pixel*Frame)               : 0.200
Stream size                      : 609 MiB (86%)
Writing library                  : XviD 1.2.1 (UTC 2008-12-04)

Audio
ID                               : 1
Format                           : MPEG Audio
Format version                   : Version 1
Format profile                   : Layer 3
Codec ID                         : 55
Codec ID/Hint                    : MP3
Duration                         : 1h 36mn
Bit rate mode                    : Constant
Bit rate                         : 128 Kbps
Channel(s)                       : 2 channels
Sampling rate                    : 44.1 KHz
Resolution                       : 16 bits
Stream size                      : 88.3 MiB (13%)
Alignment                        : Split accross interleaves
Interleave, duration             : 40 ms (1.00 video frame)
Interleave, preload duration     : 500 ms

IMAGiNE NOTES
VIDEO:Russian cam ....... Thanks
AUDIO:The Switch 2010 TS XviD-PolishBits   ....... Thanks

Right this is just the russian video cleaned up the best we could ... made it brighter, balance out the colours the best we could, altered the contrast and sharpeness aswell.
Video is ok for a cam but is overcropped on the top and bottom.
Audio ... now for this we have muxed polishbits "line", however to use it sounds a little more like cam audio, but very good cam audio.
Seems to have that echo to it that you get with cams but not on line.
However we could be wrong but this is way we tagged this release CAM READNFO.

credit IMAGiNE & to all the people who made it possible for us to share this...especially EVERYONE involve in the production of the movie...IF YOU LIKE IT...BUY IT :)

BIG BIG BIG GREETZ & THANKS:
ALL members & STAFFS of PIRATEBAY, EXTRATORRENT, KINGDOM, DEMONOID & AHASHARE :)
KaOsUSC, Motley Crue, InFeCtiouS, BADASS, W1ck3d1nt3ntz, ceo54, DaRkReAlM, ghostman, karakurachow, megaplay, Emery1337x, SaM, geordieboy1979, timamirrockdude, Noir, Shedevil, bone111, JorgeMontana, BlueLady, UniversalAbsurdity, mc68, TheFalcon007, pardeep333, X, DR67, DiNGiE, xclusive666, pro2kon, EMUworld, wrath, oziman, rubak1, BigPerm1828, skynetcentral, IZON, bluepeas, Dibya9999, Treezluv2draw, pitic, FASAMOO, W1CK3D1NT3Z, GRIND3R, extremezone, MonsterTV, BLaZE, SAFCuk009, Fabreezy & many more :)
ALL the awesome people who are SHARING (ALL THE UPLOADERS, THE RIPPERS, THE SCENE GROUPS, ETC, THE WHOLE P2P COMMUNITY, even the CRITICIZERS )
***wish i could list everyone***Thank you very much everyone & i mean EVERYONE :)

*****help what we can with others in need...the world is ONE big family*****

SCREENSHOTS
 
http://imagine.takagari.com/switch%20cam/vlcsnap-422289.png
 
http://imagine.takagari.com/switch%20cam/vlcsnap-423073.png
 
http://imagine.takagari.com/switch%20cam/vlcsnap-423251.png
 
http://imagine.takagari.com/switch%20cam/vlcsnap-425430.png
 
http://imagine.takagari.com/switch%20cam/vlcsnap-425642.png

DONT THANK ME...HELP SOMEONE IN NEED :)

MAY YOU & YOUR LOVED ONES ALWAYS BE BLESSED WITH LIGHT, LOVE, JOY, PEACE, GOOD HEALTH & ABUNDANCE :)
 
http://www.imdb.com/title/tt0889573/